/* XPM */
static char * background_xpm[] = {
"32 32 7 1",
" 	c #6E5967",
".	c #C39490",
"+	c #D1B1A5",
"@	c #B77F83",
"#	c #AD707B",
"$	c #DCCABE",
"%	c #926475",
"                                ",
"................................",
"............+..@...........+++..",
"................................",
"++.....##.++++..++...... ...++..",
"++.....##.++++..++...... ...++..",
"....##. ............###. .......",
"........................ .......",
".......##............... .......",
"#.++$$.+.......##.++$$$.........",
"................................",
"...........#..  ............##  ",
"#..............##...............",
".......##.+++$+......... ...+$$+",
"..##..  ...@##########.. .......",
"...........############. .......",
".......##.@###    %####. .......",
"#..++.+...@##      %###.........",
"...........##%     ####.....##. ",
"...........############.........",
"#.........@####%%######.........",
"++.....##..###########@. ...++..",
"....##. ................ .......",
"...................+++.. .......",
".......##............... .......",
"#.++$$.+.......##.++$$$.........",
"................................",
"...........#..  ............##  ",
"#..............##...............",
".......##.+++$+......... ...+$$+",
"..##..  ..........##...  .......",
"........................ ......."};
