/* XPM */
static char * door_opened_xpm[] = {
"34 32 16 1",
" 	c #000000",
".	c #565972",
"+	c #E8C37E",
"@	c #E0B870",
"#	c #C78C59",
"$	c #B5754D",
"%	c #46465E",
"&	c #3A3A50",
"*	c #AB4A36",
"=	c #C26A4B",
"-	c #B35E3F",
";	c #F8D239",
">	c #F2B22B",
",	c #ED931E",
"'	c #9C786B",
")	c #000000",
"....++++++++@@@@++@@@@@@@@@@##$$..",
"....++++++++@@@@++@@@@@@@@@@##$$..",
"$$++############################$$",
"$$++############################$$",
"####$$%%%%&&&&&&&&&&&&&&&&%%..$$##",
"####$$%%%%&&&&&&&&&&&&&&&&%%..$$##",
"$$##%%****&&&&&&&&&&&&&&&&&&&&..$$",
"$$##%%****&&&&&&&&&&&&&&&&&&&&..$$",
"$$##%%****&&&&&&&&&&&&&&&&&&&&%%$$",
"$$##%%****&&&&&&&&&&&&&&&&&&&&%%$$",
"$$##&&****&&&&&&&&&&&&&&&&&&&&%%$$",
"$$##&&****&&&&&&&&&&&&&&&&&&&&%%$$",
"$$##&&****&&&&&&&&&&&&&&&&&&&&%%$$",
"$$##&&****&&&&&&&&&&&&&&&&&&&&%%$$",
"$$##&&****&&&&&&&&&&&&&&&&&&&&%%$$",
"$$##&&****&&&&&&&&&&&&&&&&&&&&%%$$",
"$$##&&****&&&&&&&&&&&&&&&&&&&&%%$$",
"$$##&&****&&&&&&&&&&&&&&&&&&&&%%$$",
"$$##&&****&&&&&&&&&&&&&&&&&&&&%%$$",
"$$##&&****&&&&&&&&&&&&&&&&&&&&%%$$",
"$$##&&****&&&&&&&&&&&&&&&&&&&&%%$$",
"$$##&&****&&&&&&&&&&&&&&&&&&&&%%$$",
"$$##&&****&&&&&&&&&&&&&&&&&&&&%%$$",
"$$##&&****&&&&&&&&&&&&&&&&&&&&%%$$",
"$$##&&****%%%%%%%%%%%%%%%%%%%%%%$$",
"$$##&&****%%%%%%%%%%%%%%%%%%%%%%$$",
"$$$$&&****&&&&&&&&&&&&&&&&&&&&%%$$",
"$$$$&&****&&&&&&&&&&&&&&&&&&&&%%$$",
"$$$$&&%%%%%%%%%%%%%%%%%%%%%%%%&&$$",
"$$$$&&%%%%%%%%%%%%%%%%%%%%%%%%&&$$",
"&&&&&&''''''''''''''''''''''''&&&&",
"&&&&&&''''''''''''''''''''''''&&&&"};
