/* XPM */
static char * titleBack1_xpm[] = {
"16 16 11 1",
" 	c #4F2736",
".	c #653444",
"+	c #D58C56",
"@	c #E3A569",
"#	c #B1664B",
"$	c #865466",
"%	c #774353",
"&	c #A25B45",
"*	c #EEB47A",
"=	c #3B1D2D",
"-	c #2D0D1D",
" ...... ........",
".+@@@+@+@+@@@+# ",
".$#+@@+++++++#% ",
".$$&+@@@@@@+#%% ",
".$%$&+****+&%%% ",
" $$%$#&#&&&%%%% ",
" $%$%##&&##%%.%=",
" $$%%#&#&##.%%% ",
".$$%%&##&##.%.% ",
".$%$%&&&#&&..%% ",
".%$%%#&#&&&.%.%=",
".$$% .  =   ..% ",
".$%    =     .%=",
" %    = =     .=",
"=  ======== == -",
"----------------"};
