/* XPM */
static char * window_xpm[] = {
"32 32 66 1",
" 	c #6E5967",
".	c #C39490",
"+	c #E28989",
"@	c #D2727E",
"#	c #EDA799",
"$	c #FBCAAE",
"%	c #D1B1A5",
"&	c #FAEBCF",
"*	c #86AECA",
"=	c #98CBD8",
"-	c #908085",
";	c #F6EBD1",
">	c #F7D1BA",
",	c #AD707B",
"'	c #EDB8AB",
")	c #B6E4E2",
"!	c #DCF2ED",
"~	c #8F8085",
"{	c #DCCABE",
"]	c #C8E6E3",
"^	c #8F7F84",
"/	c #B3DBDB",
"(	c #8E7E83",
"_	c #8D7D83",
":	c #F7D1B9",
"<	c #8C7C82",
"[	c #EDB7A9",
"}	c #8B7B81",
"|	c #8E7F84",
"1	c #F8D1B9",
"2	c #EDB7A8",
"3	c #8A7980",
"4	c #F8D0B8",
"5	c #897980",
"6	c #88787F",
"7	c #F8D0B7",
"8	c #88777E",
"9	c #87767D",
"0	c #EDB5A6",
"a	c #86757C",
"b	c #8A7A80",
"c	c #89787F",
"d	c #86747C",
"e	c #F7EBD1",
"f	c #F8CFB7",
"g	c #EDB4A6",
"h	c #85747C",
"i	c #EDB3A5",
"j	c #84727A",
"k	c #E4A39E",
"l	c #E4A29E",
"m	c #E4A19D",
"n	c #E4A09C",
"o	c #E49F9B",
"p	c #E39E9A",
"q	c #E39D99",
"r	c #E39C98",
"s	c #E39B98",
"t	c #E39B97",
"u	c #E39A96",
"v	c #83727A",
"w	c #837179",
"x	c #7F6D77",
"y	c #87777E",
"z	c #84737B",
"A	c #827079",
"                                ",
".......  + @++++++@ +  .........",
"..... ++#$ #$$$$$$# $#++ ..%%%..",
".... ++$$$ $$$$$$$$ $$$#+ ......",
"%%..++#$$$ #$&&$$$# $$$$++ .%%..",
"%%. #$$$& *========* &$$$#+.%%..",
"... $$$& *==========*-;$$$+.....",
".. +$$$ *============*-;$$# ....",
".. +$$$*==============*->>> ....",
",. +$$#================->>'-....",
"..     ===========)!!!!-----....",
".. +$$#==========)!!!!!->>'-,,  ",
",. +$$&==========!!!!!!->>>-....",
".. +$$&==========!!!!!!->>>~%{{%",
".. +$$$==========!!!!!]->>>^....",
".. +$$$=============///->>>(....",
".. +$$$================->>>_....",
",. +$$$================->>:<....",
"..     ================^::[},,. ",
".. +$$#================|_<<}....",
",. +$$$)===============(1123....",
"%% +$$&!!)=============_1445%%..",
".. +$$&!!!!)===========<4446....",
".. +$$&!!!!!!!)========}4478....",
".. +$$$]!!!!!!!)=======}4779....",
",. +$$#///!!!!!!)=====*5770a....",
"..     --------~|__<}b5c899d....",
".. +$$$;;;;;;>>>::e4ee777fgh,,  ",
",. +$$$$>>>>>>:::4447777ffij....",
".. ++++++kkkllmmmnoopqqrstuv%{{%",
".. @+++++kkllmmmnoopqqrrtuuw....",
"..       x~^(_<}}3c6y9adzjvA...."};
