/* XPM */
static char * window_xpm[] = {
"32 32 63 1",
" 	c None",
".	c #6E5967",
"+	c #E28989",
"@	c #D2727E",
"#	c #EDA799",
"$	c #FBCAAE",
"%	c #FAEBCF",
"&	c #86AECA",
"*	c #98CBD8",
"=	c #908085",
"-	c #F6EBD1",
";	c #F7D1BA",
">	c #EDB8AB",
",	c #B6E4E2",
"'	c #DCF2ED",
")	c #8F8085",
"!	c #C8E6E3",
"~	c #8F7F84",
"{	c #B3DBDB",
"]	c #8E7E83",
"^	c #8D7D83",
"/	c #F7D1B9",
"(	c #8C7C82",
"_	c #EDB7A9",
":	c #8B7B81",
"<	c #8E7F84",
"[	c #F8D1B9",
"}	c #EDB7A8",
"|	c #8A7980",
"1	c #F8D0B8",
"2	c #897980",
"3	c #88787F",
"4	c #F8D0B7",
"5	c #88777E",
"6	c #87767D",
"7	c #EDB5A6",
"8	c #86757C",
"9	c #8A7A80",
"0	c #89787F",
"a	c #86747C",
"b	c #F7EBD1",
"c	c #F8CFB7",
"d	c #EDB4A6",
"e	c #85747C",
"f	c #EDB3A5",
"g	c #84727A",
"h	c #E4A39E",
"i	c #E4A29E",
"j	c #E4A19D",
"k	c #E4A09C",
"l	c #E49F9B",
"m	c #E39E9A",
"n	c #E39D99",
"o	c #E39C98",
"p	c #E39B98",
"q	c #E39B97",
"r	c #E39A96",
"s	c #83727A",
"t	c #837179",
"u	c #7F6D77",
"v	c #87777E",
"w	c #84737B",
"x	c #827079",
"          ............          ",
"        ..+.@++++++@.+..        ",
"      .++#$.#$$$$$$#.$#++.      ",
"     .++$$$.$$$$$$$$.$$$#+.     ",
"     ++#$$$.#$%%$$$#.$$$$++.    ",
"    .#$$$%.&********&.%$$$#+    ",
"    .$$$%.&**********&=-$$$+    ",
"   .+$$$.&************&=-$$#.   ",
"   .+$$$&**************&=;;;.   ",
"   .+$$#****************=;;>=   ",
"   .....***********,''''=====   ",
"   .+$$#**********,'''''=;;>=   ",
"   .+$$%**********''''''=;;;=   ",
"   .+$$%**********''''''=;;;)   ",
"   .+$$$**********'''''!=;;;~   ",
"   .+$$$*************{{{=;;;]   ",
"   .+$$$****************=;;;^   ",
"   .+$$$****************=;;/(   ",
"   .....****************~//_:   ",
"   .+$$#****************<^((:   ",
"   .+$$$,***************][[}|   ",
"   .+$$%'',*************^[112   ",
"   .+$$%'''',***********(1113   ",
"   .+$$%''''''',********:1145   ",
"   .+$$$!''''''',*******:1446   ",
"   .+$$#{{{'''''',*****&24478   ",
"   .....========)<^^(:920566a   ",
"   .+$$$------;;;//b1bb444cde   ",
"   .+$$$$;;;;;;///1114444ccfg   ",
"   .++++++hhhiijjjkllmnnopqrs   ",
"   .@+++++hhiijjjkllmnnooqrrt   ",
"   .......u)~]^(::|03v68awgsx   "};
