/* XPM */
static char * diamond_xpm[] = {
"32 32 7 1",
" 	c None",
".	c #3F3851",
"+	c #5987C6",
"@	c #6198CC",
"#	c #68B8D3",
"$	c #90E3E4",
"%	c #4F6DC0",
"                                ",
"                                ",
"                                ",
"      ....................      ",
"      ....................      ",
"      ....................      ",
"   .....++@@@###$$$##$$$$$...   ",
"   .....++@@@###$$$##$$$$$...   ",
"   .....++@@@###$$$##$$$$$...   ",
"......++@@###$$$$$$$$##$$$$$$...",
"......++@@###$$$$$$$$##$$$$$$...",
"......++@@###$$$$$$$$##$$$$$$...",
"......%%%%@@@$$$$$$$$@@######...",
"......%%%%@@@$$$$$$$$@@######...",
"......%%%%+++$$$$$$$$@@######...",
"......%%%%+++$$$$$$$$@@######...",
"   .....%%%%%$$$$$$$$#####...   ",
"   .....%%%%%$$$$$$$$#####...   ",
"   .....%%%%%$$$$$$$$#####...   ",
"      ....%%%$$$$$$$$##...      ",
"      ....%%%$$$$$$$$##...      ",
"      ....%%%$$$$$$$$##...      ",
"        .....%%%$$$##..         ",
"        .....%%%$$$##..         ",
"        .....%%%$$$##..         ",
"          ......$$$..           ",
"          ......$$$..           ",
"             ......             ",
"             ......             ",
"                                ",
"                                ",
"                                "};
