/* XPM */
static char * diamond_xpm[] = {
"32 32 12 1",
" 	c #6E5967",
".	c #C39490",
"+	c #D1B1A5",
"@	c #B77F83",
"#	c #3F3851",
"$	c #5987C6",
"%	c #6198CC",
"&	c #68B8D3",
"*	c #90E3E4",
"=	c #4F6DC0",
"-	c #AD707B",
";	c #DCCABE",
"                                ",
"................................",
"............+..@...........+++..",
"......####################......",
"++....####################..++..",
"++....####################..++..",
"...#####$$%%%&&&***&&*****###...",
"...#####$$%%%&&&***&&*****###...",
"...#####$$%%%&&&***&&*****###...",
"######$$%%&&&********&&******###",
"######$$%%&&&********&&******###",
"######$$%%&&&********&&******###",
"######====%%%********%%&&&&&&###",
"######====%%%********%%&&&&&&###",
"######====$$$********%%&&&&&&###",
"######====$$$********%%&&&&&&###",
"...#####=====********&&&&&###...",
"-..#####=====********&&&&&###...",
"...#####=====********&&&&&###-. ",
"......####===********&&###......",
"-.....####===********&&###......",
"++....####===********&&###..++..",
"....--. #####===***&&##. .......",
"........#####===***&&##. .......",
".......-#####===***&&##. .......",
"-.++;;.+..######***##;;.........",
"..........######***##...........",
"...........-.######.........--  ",
"-............######.............",
".......--.+++;+......... ...+;;+",
"..--..  ..........--...  .......",
"........................ ......."};
