/* XPM */
static char * egg_xpm[] = {
"32 32 11 1",
" 	c #6E5967",
".	c #C39490",
"+	c #272736",
"@	c #D1B1A5",
"#	c #B0305C",
"$	c #AD707B",
"%	c #FFB570",
"&	c #73275C",
"*	c #FFFFEB",
"=	c #BA6156",
"-	c #DCCABE",
"                                ",
"............++++++++............",
"............++++++++.......@@@..",
".........+++########+++.........",
"@@.....$$+++########+++. ...@@..",
"@@.....$$+++########+++. ...@@..",
"....$$.++#########%%&&&++.......",
".......++#########%%&&&++.......",
".....++##*****##%%%%%%%==++.....",
"$.@@-++##*****##%%%%%%%==++.....",
".....++%%*****%%%%%%###&&++.....",
".....++%%*****%%%%%%###&&++.$$  ",
"$..++#######%%%%%%#######&&++...",
"...++#######%%%%%%#######&&++--@",
"..$++#######%%%%%%#######&&++...",
"...++##**#####%%%%%%#####&&++...",
"...++##**#####%%%%%%#####&&++...",
"+++#########%%%%%%#######%%&&+++",
"+++#########%%%%%%#######%%&&+++",
"+++####%%%%%%%%%%%%%%%%%%%%&&+++",
"+++####%%%%%%%%%%%%%%%%%%%%&&+++",
"+++==%%%%###%%%%%%#######%%==+++",
"+++==%%%%###%%%%%%#######%%==+++",
"...++&&##%%%%%#########%%==++...",
"...++&&##%%%%%#########%%==++...",
"$.@++&&##%%%%%#########%%==++...",
"...++&&&&&&&########=====&&++...",
"...++&&&&&&&########=====&&++$  ",
"$....++++&&&&&======&&&++++.....",
".....++++&&&&&======&&&++++.@--@",
"..$$..  .++++++++++++++  .......",
".........++++++++++++++. ......."};
