/* XPM */
static char * BlueDinoLeft_xpm[] = {
"32 32 12 1",
" 	c #6E5967",
".	c #213038",
"+	c #C39490",
"@	c #D1B1A5",
"#	c #4D92BC",
"$	c #437DA0",
"%	c #FFFFFF",
"&	c #9A2890",
"*	c #AD707B",
"=	c #DCCABE",
"-	c #FFD7A8",
";	c #D8B78F",
"       ....................     ",
"+++++++....................+++++",
"++@@@..###########..$$$$$$...+++",
"+++++..###########..$$$$$$...+++",
"++@..###########$$%%..%%$$.&&..@",
"++@..###########$$%%..%%$$.&&..@",
"+++....#####..##$$%%..%%$$.&&..+",
"+++....#####..##$$%%..%%$$.&&..+",
"+++..###########$$%%..%%$$.....+",
"+++..###########$$$$$$$$..&..@+*",
"+++..###########$$$$$$$$..&..+++",
"  *..###########$$$$$$$$..&..+++",
"+++..###########$$$$$$$$..&..++*",
"@==.........##$$$$$$$$$$.....+++",
"+++.........##$$$$$$$$$$.....*++",
"+++++++ +.########$$$$....++++++",
"+++++++ +.########$$$$....++++++",
"+++++++++.########$$$$..+@+@@++*",
" +**+++++.########$$$$..++++++++",
"+++++++++.--------;;$$..++++++++",
"+++++++++.--------;;$$..+++++++*",
"++@@+++ +.--------;;$$##...+++@@",
"+++++++ +.--------;;$$##...*++++",
"+++++++ +.--------;;$$$$##.+++++",
"+++++++ +.--------;;$$$$##.+++++",
"+++++++++.##;;;;##$$$$$$...=@@+*",
"+++++++++.##########$$..++++++++",
"  **+++++.##########$$..++++++++",
"+++++++++.##$$....##$$..+++++++*",
"@==@+++ +.##$$....##$$..*+++++++",
"+++++++  +......++......  ++**++",
"+++++++ ++......++......++++++++"};
