/* XPM */
static char * BlueDino_xpm[] = {
"32 32 12 1",
" 	c #6E5967",
".	c #213038",
"+	c #C39490",
"@	c #437DA0",
"#	c #4D92BC",
"$	c #D1B1A5",
"%	c #9A2890",
"&	c #FFFFFF",
"*	c #AD707B",
"=	c #DCCABE",
"-	c #D8B78F",
";	c #FFD7A8",
"     ....................       ",
"+++++....................+++++++",
"+++...@@@@@@..###########..$$$++",
"+++...@@@@@@..###########..+++++",
"$..%%.@@&&..&&@@###########..$++",
"$..%%.@@&&..&&@@###########..$++",
"+..%%.@@&&..&&@@##..#####....+++",
"+..%%.@@&&..&&@@##..#####....+++",
"+.....@@&&..&&@@###########..+++",
"*+$..%..@@@@@@@@###########..+++",
"+++..%..@@@@@@@@###########..+++",
"+++..%..@@@@@@@@###########..*  ",
"*++..%..@@@@@@@@###########..+++",
"+++.....@@@@@@@@@@##.........==$",
"++*.....@@@@@@@@@@##.........+++",
"++++++....@@@@########.+ +++++++",
"++++++....@@@@########.+ +++++++",
"*++$$+$+..@@@@########.+++++++++",
"++++++++..@@@@########.+++++**+ ",
"++++++++..@@--;;;;;;;;.+++++++++",
"*+++++++..@@--;;;;;;;;.+++++++++",
"$$+++...##@@--;;;;;;;;.+ +++$$++",
"++++*...##@@--;;;;;;;;.+ +++++++",
"+++++.##@@@@--;;;;;;;;.+ +++++++",
"+++++.##@@@@--;;;;;;;;.+ +++++++",
"*+$$=...@@@@@@##----##.+++++++++",
"++++++++..@@##########.+++++++++",
"++++++++..@@##########.+++++**  ",
"*+++++++..@@##....@@##.+++++++++",
"+++++++*..@@##....@@##.+ +++$==$",
"++**++  ......++......+  +++++++",
"++++++++......++......++ +++++++"};
