/* XPM */
static char * BlueDino_xpm[] = {
"32 32 8 1",
" 	c None",
".	c #213038",
"+	c #437DA0",
"@	c #4D92BC",
"#	c #9A2890",
"$	c #FFFFFF",
"%	c #D8B78F",
"&	c #FFD7A8",
"      ....................      ",
"      ....................      ",
"    ...++++++..@@@@@@@@@@@..    ",
"    ...++++++..@@@@@@@@@@@..    ",
"  ..##.++$$..$$++@@@@@@@@@@@..  ",
"  ..##.++$$..$$++@@@@@@@@@@@..  ",
"  ..##.++$$..$$++@@..@@@@@....  ",
"  ..##.++$$..$$++@@..@@@@@....  ",
"  .....++$$..$$++@@@@@@@@@@@..  ",
"    ..#..++++++++@@@@@@@@@@@..  ",
"    ..#..++++++++@@@@@@@@@@@..  ",
"    ..#..++++++++@@@@@@@@@@@..  ",
"    ..#..++++++++@@@@@@@@@@@..  ",
"    .....++++++++++@@.........  ",
"    .....++++++++++@@.........  ",
"       ....++++@@@@@@@@.        ",
"       ....++++@@@@@@@@.        ",
"         ..++++@@@@@@@@.        ",
"         ..++++@@@@@@@@.        ",
"         ..++%%&&&&&&&&.        ",
"         ..++%%&&&&&&&&.        ",
"      ...@@++%%&&&&&&&&.        ",
"      ...@@++%%&&&&&&&&.        ",
"      .@@++++%%&&&&&&&&.        ",
"      .@@++++%%&&&&&&&&.        ",
"      ...++++++@@%%%%@@.        ",
"         ..++@@@@@@@@@@.        ",
"         ..++@@@@@@@@@@.        ",
"         ..++@@....++@@.        ",
"         ..++@@....++@@.        ",
"         ......  ......         ",
"         ......  ......         "};
