/* XPM */
static char * background_xpm[] = {
"32 32 13 1",
" 	c #6E5967",
".	c #382121",
"+	c #C39490",
"@	c #A04345",
"#	c #BC4D4F",
"$	c #D1B1A5",
"%	c #4B9A27",
"&	c #FFFFFF",
"*	c #AD707B",
"=	c #DCCABE",
"-	c #D8B78F",
";	c #FFD7A8",
">	c #B77F83",
"     .......................    ",
"+++++.......................++++",
"+++....@@@@@@@@#############..++",
"+++....@@@@@@@@#############..++",
"$..%%..@@@@@@@@@####@@@@@@##..++",
"$..%%..@@@@@@@@@####@@@@@@##..++",
"+..%%..@@&&..&&@##..######....++",
"+......@@&&..&&@############..++",
"+......@@&&..&&@############..++",
"*+$..%%..&&..&&@############..++",
"+++..%%..&&..&&@############..++",
"+++..%%..@@@@@@@############..  ",
"*++..%%..@@@@@@@############..++",
"+++......@@@@@@@@@##..........=$",
"++*......@@@@@@@@@##..........++",
"+++....@@@@#######..***+ +++++++",
"+++....@@@@#######..***+ +++++++",
"*++$$..@@--;;;;;;;..***+++++++++",
"+++++..@@--;;;;;;;..***+++++**+ ",
"+......@@--;;;;;;;..***+++++++++",
"*......@@--;;;;;;;..***+++++++++",
"$..####@@--;;;;;;;..**>+ +++$$++",
"+....@@@@@@##---##..++++ +++++++",
"+....@@@@@@##---##..$$++ +++++++",
"+++....@@#########..++++ +++++++",
"*+$....@@#########..===+++++++++",
"+++++..@@##....@##..++++++++++++",
"+++++..@@##....@##..++++++++**  ",
"*++++..@@..++..@..++++++++++++++",
"+++++..@@..$$..@..++++++ +++$==$",
"++**+....++++...++**+++  +++++++",
"+++++....++++...++++++++ +++++++"};
