/* XPM */
static char * skull_xpm[] = {
"32 32 460 2",
"  	c #6E5967",
". 	c #C39490",
"+ 	c #C39591",
"@ 	c #FFFFFF",
"# 	c #C49793",
"$ 	c #C49792",
"% 	c #D1B1A5",
"& 	c #A18C75",
"* 	c #A6927B",
"= 	c #B0A388",
"- 	c #B4A690",
"; 	c #B7AA94",
"> 	c #B8AD97",
", 	c #B8AD95",
"' 	c #BAAD97",
") 	c #B7AC95",
"! 	c #C59994",
"~ 	c #AD707B",
"{ 	c #907A63",
"] 	c #9E8B73",
"^ 	c #B7AC99",
"/ 	c #C1B8A7",
"( 	c #CFC7BA",
"_ 	c #D3D0C2",
": 	c #D6D3C6",
"< 	c #D6D3C7",
"[ 	c #D6D2C5",
"} 	c #D3CDC1",
"| 	c #D0CBBD",
"1 	c #B5AA94",
"2 	c #B0A38A",
"3 	c #C49994",
"4 	c #C49691",
"5 	c #87725D",
"6 	c #A59681",
"7 	c #B3A896",
"8 	c #C0B9A8",
"9 	c #CCC5B7",
"0 	c #D5D2C6",
"a 	c #DEDDD1",
"b 	c #E1DFD6",
"c 	c #E0DDD4",
"d 	c #DEDACF",
"e 	c #DEDACE",
"f 	c #DAD6CA",
"g 	c #D0C8BA",
"h 	c #B1A38B",
"i 	c #7D674F",
"j 	c #9E8C76",
"k 	c #B0A28E",
"l 	c #B7B0A2",
"m 	c #CBC4B7",
"n 	c #D4CFC3",
"o 	c #DBD9CE",
"p 	c #E0DED6",
"q 	c #E4E3D8",
"r 	c #E5E4DA",
"s 	c #E4E5D9",
"t 	c #E3E0D7",
"u 	c #E2DFD6",
"v 	c #E0DDD3",
"w 	c #D9D3C8",
"x 	c #CCC7B7",
"y 	c #B0A68D",
"z 	c #79634D",
"A 	c #93836C",
"B 	c #A49585",
"C 	c #B4A895",
"D 	c #C8C1B3",
"E 	c #CCC7BA",
"F 	c #D6D2C6",
"G 	c #DDDAD0",
"H 	c #E1DFD8",
"I 	c #E6E6DB",
"J 	c #E5E5DB",
"K 	c #E6E4DB",
"L 	c #E5E3DA",
"M 	c #E2E0D6",
"N 	c #DDDAD1",
"O 	c #D7D2C5",
"P 	c #C9C2B3",
"Q 	c #AD9D85",
"R 	c #735F49",
"S 	c #8D7966",
"T 	c #A09175",
"U 	c #A99B89",
"V 	c #C1B8A8",
"W 	c #CDC9BC",
"X 	c #D6D2C7",
"Y 	c #E2DFD8",
"Z 	c #E6E5DB",
"` 	c #E4E3DA",
" .	c #E5E3D9",
"..	c #DDDACF",
"+.	c #D7D1C5",
"@.	c #D4CEBF",
"#.	c #B1A086",
"$.	c #725C47",
"%.	c #89755D",
"&.	c #917E6B",
"*.	c #A39780",
"=.	c #AA9D8E",
"-.	c #C3BBAC",
";.	c #CBC6B8",
">.	c #D0CABC",
",.	c #886C50",
"'.	c #8E7054",
").	c #917757",
"!.	c #957B5C",
"~.	c #977D5E",
"{.	c #9B866B",
"].	c #D5CFC3",
"^.	c #E2DDD4",
"/.	c #E3E3D9",
"(.	c #907A5D",
"_.	c #8A7155",
":.	c #836B4D",
"<.	c #C9C2B4",
"[.	c #B1A289",
"}.	c #745F48",
"|.	c #8D785F",
"1.	c #9A8871",
"2.	c #A79983",
"3.	c #BFB7A6",
"4.	c #C4BCAD",
"5.	c #C6BEB2",
"6.	c #856B50",
"7.	c #987D5E",
"8.	c #A38869",
"9.	c #A98E6E",
"0.	c #AA906F",
"a.	c #A68A6B",
"b.	c #8E7557",
"c.	c #D7D0C3",
"d.	c #8B7456",
"e.	c #9E8266",
"f.	c #A08768",
"g.	c #9F8368",
"h.	c #C1B8A9",
"i.	c #6C5643",
"j.	c #887259",
"k.	c #8F7966",
"l.	c #9A8973",
"m.	c #A89983",
"n.	c #C0B7A8",
"o.	c #7D6247",
"p.	c #907556",
"q.	c #977A5B",
"r.	c #A28664",
"s.	c #A48869",
"t.	c #A78A6A",
"u.	c #A68B6C",
"v.	c #A38667",
"w.	c #8A6E51",
"x.	c #CAC2B1",
"y.	c #E4E1D9",
"z.	c #9C8062",
"A.	c #A08467",
"B.	c #9D8366",
"C.	c #967E62",
"D.	c #AFA18A",
"E.	c #6D5643",
"F.	c #897762",
"G.	c #907F67",
"H.	c #9B8A73",
"I.	c #A79883",
"J.	c #C0B7A6",
"K.	c #C3BBAB",
"L.	c #796042",
"M.	c #8B7156",
"N.	c #917556",
"O.	c #9B7E5F",
"P.	c #9B8060",
"Q.	c #9F8363",
"R.	c #A28566",
"S.	c #9E8061",
"T.	c #8C6F51",
"U.	c #CAC2B3",
"V.	c #E4E1D8",
"W.	c #84694D",
"X.	c #957A5D",
"Y.	c #9B7D63",
"Z.	c #967E5E",
"`.	c #92775E",
" +	c #B0A38D",
".+	c #6E5943",
"++	c #8C7862",
"@+	c #907D66",
"#+	c #9A8972",
"$+	c #A69780",
"%+	c #BDB4A4",
"&+	c #765C42",
"*+	c #866B4E",
"=+	c #896D4F",
"-+	c #8F7457",
";+	c #957657",
">+	c #95785A",
",+	c #9A7C5C",
"'+	c #8B6F52",
")+	c #B8A487",
"!+	c #C0B59D",
"~+	c #8C7257",
"{+	c #E5E3D8",
"]+	c #897457",
"^+	c #8B6F54",
"/+	c #876D51",
"(+	c #85694F",
"_+	c #B2A58F",
":+	c #674D38",
"<+	c #88745F",
"[+	c #8B7762",
"}+	c #8F7E66",
"|+	c #998873",
"1+	c #A49580",
"2+	c #BCB2A0",
"3+	c #766046",
"4+	c #7A5F46",
"5+	c #7B5F45",
"6+	c #806548",
"7+	c #83674B",
"8+	c #886C4E",
"9+	c #816449",
"0+	c #B7A486",
"a+	c #B6A285",
"b+	c #C0B49C",
"c+	c #937459",
"d+	c #745941",
"e+	c #755E43",
"f+	c #735B42",
"g+	c #BEB4A5",
"h+	c #AFA28D",
"i+	c #624C37",
"j+	c #86735E",
"k+	c #8B7761",
"l+	c #8F7E65",
"m+	c #9C8671",
"n+	c #A3937F",
"o+	c #A79882",
"p+	c #BEB4A2",
"q+	c #C2B9A9",
"r+	c #6D533C",
"s+	c #70583C",
"t+	c #73573B",
"u+	c #74593E",
"v+	c #765A3D",
"w+	c #B6A185",
"x+	c #B5A184",
"y+	c #B5A387",
"z+	c #93755A",
"A+	c #927458",
"B+	c #856D50",
"C+	c #E3E3DA",
"D+	c #E3DFD5",
"E+	c #6C5439",
"F+	c #685238",
"G+	c #B1A48E",
"H+	c #614B36",
"I+	c #7F6A57",
"J+	c #897660",
"K+	c #8E7A64",
"L+	c #9C8B72",
"M+	c #A2927C",
"N+	c #A3927F",
"O+	c #B2A593",
"P+	c #C1B6A6",
"Q+	c #C3BDAE",
"R+	c #664B33",
"S+	c #685035",
"T+	c #6A4F33",
"U+	c #6A5034",
"V+	c #B29E82",
"W+	c #B39F85",
"X+	c #B9AE93",
"Y+	c #917358",
"Z+	c #917452",
"`+	c #897153",
" @	c #806A4E",
".@	c #E1E0D7",
"+@	c #CBC6B7",
"@@	c #C7C0B1",
"#@	c #B1A491",
"$@	c #7C6852",
"%@	c #877560",
"&@	c #8C7964",
"*@	c #9A876F",
"=@	c #9E8D75",
"-@	c #95806B",
";@	c #B2A28F",
">@	c #BDB3A1",
",@	c #C3BCAC",
"'@	c #C4C2B4",
")@	c #644931",
"!@	c #644A30",
"~@	c #BEB19D",
"{@	c #B0A486",
"]@	c #BCB09C",
"^@	c #BEB29E",
"/@	c #7F6248",
"(@	c #82664C",
"_@	c #836C52",
":@	c #8A755B",
"<@	c #DEDBD2",
"[@	c #D8D2C7",
"}@	c #C4BBAD",
"|@	c #B1A591",
"1@	c #604A36",
"2@	c #7B654D",
"3@	c #7F6B58",
"4@	c #8A765B",
"5@	c #8F7C67",
"6@	c #917D69",
"7@	c #8D755F",
"8@	c #AD9F8D",
"9@	c #BBAF9E",
"0@	c #BFB8A7",
"a@	c #C1BCAB",
"b@	c #C2BAAA",
"c@	c #BFB6A4",
"d@	c #BAAE9A",
"e@	c #B9AB98",
"f@	c #C1B8A6",
"g@	c #CCC2B3",
"h@	c #CCC5B5",
"i@	c #D1CDC0",
"j@	c #DEDBD1",
"k@	c #DEDCD2",
"l@	c #D7D4CA",
"m@	c #D5D1C5",
"n@	c #C2B9AA",
"o@	c #B2A894",
"p@	c #5E4834",
"q@	c #7B644E",
"r@	c #7E6955",
"s@	c #806B57",
"t@	c #826D59",
"u@	c #856F5A",
"v@	c #A6917F",
"w@	c #ABA28C",
"x@	c #B8AE9C",
"y@	c #BCB5A4",
"z@	c #BEB6A4",
"A@	c #BAB2A0",
"B@	c #B5A994",
"C@	c #B5A893",
"D@	c #B6AA96",
"E@	c #C1B7A5",
"F@	c #C6BFAD",
"G@	c #CAC1B2",
"H@	c #D5D1C6",
"I@	c #DCD7CD",
"J@	c #DDDBD0",
"K@	c #DCDBD1",
"L@	c #D5D1C4",
"M@	c #C5C0B1",
"N@	c #B6AC9B",
"O@	c #624B38",
"P@	c #715A45",
"Q@	c #77624E",
"R@	c #715943",
"S@	c #93826D",
"T@	c #A59680",
"U@	c #A99F88",
"V@	c #B5AA97",
"W@	c #B9B19E",
"X@	c #BAB39F",
"Y@	c #6A543C",
"Z@	c #6A543D",
"`@	c #6B553D",
" #	c #B2A38D",
".#	c #B4A792",
"+#	c #BDB4A1",
"@#	c #C3BAA9",
"##	c #CECABA",
"$#	c #D4CFC4",
"%#	c #D8D5C9",
"&#	c #DBDACE",
"*#	c #DBD9CF",
"=#	c #D6D4C7",
"-#	c #D1CFC2",
";#	c #B5AA9A",
">#	c #604937",
",#	c #614A37",
"'#	c #66513B",
")#	c #86725E",
"!#	c #907F6A",
"~#	c #A0907A",
"{#	c #92826A",
"]#	c #92826B",
"^#	c #634E38",
"/#	c #654F39",
"(#	c #735E48",
"_#	c #756049",
":#	c #735F46",
"<#	c #B9B09B",
"[#	c #AFA28F",
"}#	c #CCC6B8",
"|#	c #D0CBBE",
"1#	c #D1CCC2",
"2#	c #D7D6CA",
"3#	c #D8D6CA",
"4#	c #BFB9AA",
"5#	c #CBC5B7",
"6#	c #614A36",
"7#	c #7B6651",
"8#	c #836F5A",
"9#	c #8D7C68",
"0#	c #836F5B",
"a#	c #5D4733",
"b#	c #5F4C35",
"c#	c #745E48",
"d#	c #75604A",
"e#	c #77614B",
"f#	c #77604A",
"g#	c #AA9B85",
"h#	c #B4AA96",
"i#	c #8E7965",
"j#	c #C8C3B2",
"k#	c #CBC5B4",
"l#	c #C2BCAE",
"m#	c #D1CDBF",
"n#	c #A79F8D",
"o#	c #C6C2B3",
"p#	c #5E4634",
"q#	c #77634E",
"r#	c #816C58",
"s#	c #8A7864",
"t#	c #7C6854",
"u#	c #594632",
"v#	c #6B573F",
"w#	c #715B45",
"x#	c #715C46",
"y#	c #725D47",
"z#	c #69553F",
"A#	c #A5967F",
"B#	c #B1A791",
"C#	c #78624C",
"D#	c #C2BCAC",
"E#	c #C3BEAF",
"F#	c #A59985",
"G#	c #BEB6A5",
"H#	c #8E7D66",
"I#	c #C3BDAD",
"J#	c #695744",
"K#	c #685344",
"L#	c #705A45",
"M#	c #53402C",
"N#	c #654F3B",
"O#	c #68533E",
"P#	c #6B5640",
"Q#	c #998772",
"R#	c #9D8D76",
"S#	c #B8AE9D",
"T#	c #B9AE9E",
"U#	c #7F6A55",
"V#	c #A99E8B",
"W#	c #A1947E",
"X#	c #A19480",
"Y#	c #9D907C",
"Z#	c #9E917C",
"`#	c #DCCABE",
"                                                                ",
". . . . . . . . . . . . . . . . . + . . + + + + . . . . . . . . ",
". . . . . . . . . . . . @ @ @ @ @ @ @ @ @ @ # # $ + . % % % . . ",
". . . . . . . . . @ @ @ & * = - ; > , ' ) ) @ @ ! $ + . . . . . ",
"% % . . . . . ~ @ { ] ] ^ / ( _ : < [ } | | 1 2 @ 3 4 . % % . . ",
"% % . . . . . ~ @ { ] ] ^ / ( _ : < [ } | | 1 2 @ 3 4 . % % . . ",
". . . . ~ ~ . @ 5 6 7 7 8 9 0 a b b c d e e f g h @ $ . . . . . ",
". . . . . . @ i j k l l m n o p q r s t u u v w x y @ . . . . . ",
". . . . . @ z A B C D D E F G H r I J K L L M N O P Q @ . . . . ",
"~ . % % @ R S T U V m m W X N Y r Z Z Z ` `  ...+.@.#.@ . . . . ",
". . . @ $.%.&.*.=.-.;.;.>.,.'.).!.~.{.].^.^./.(._.:.<.[.@ . . . ",
". . . @ }.|.1.2.3.4.5.5.6.7.8.9.0.0.a.b.c.c.` d.e.f.g.h.@ ~     ",
"~ @ @ i.j.k.l.m.n.4.o.o.p.q.r.s.t.u.v.w.x.x.y.,.z.A.B.C.D.@ @ . ",
". @ @ E.F.G.H.I.J.K.L.L.M.N.O.P.Q.R.S.T.U.U.V.W.X.Y.Z.`. +@ @ % ",
". @ @ E.F.G.H.I.J.K.L.L.M.N.O.P.Q.R.S.T.U.U.V.W.X.Y.Z.`. +@ @ . ",
". @ @ .+++@+#+$+%+h.&+&+*+=+-+;+>+,+'+)+!+!+~+{+]+^+/+(+_+@ @ . ",
"@ :+:+<+[+}+|+1+2+3.3+3+4+5+6+7+8+9+0+a+b+b+c+q /.d+e+f+g+h+h+@ ",
"@ i+i+j+k+l+m+n+o+p+q+q+r+s+t+u+v+w+x+y+z+z+A+B+C+D+E+F+I.G+G+@ ",
"@ H+H+I+J+K+L+M+N+O+P+P+Q+R+S+T+U+V+W+X+Y+Y+Z+`+ @.@+@@@q+#@#@@ ",
"@ H+H+$@%@&@*@=@-@;@>@>@,@'@)@!@~@{@]@^@/@/@(@_@:@<@[@>.}@|@|@@ ",
"@ 1@1@2@3@4@5@6@7@8@9@9@0@a@b@c@d@e@d@f@g@g@h@i@j@k@l@m@n@o@o@@ ",
"@ p@p@q@r@s@t@u@v@w@x@x@y@z@c@A@B@C@D@E@F@F@G@H@I@J@K@L@M@N@N@@ ",
". @ @ O@P@Q@R@S@T@U@V@V@W@X@Y@Z@`@ #.#+#@#@###$#%#&#*#=#-#;#;#@ ",
". @ @ >#,#'#)#!#~#{#]#]#^#/#(#_#:#Y@h+<#[#[#}#|#1#2#3#4#5#@ @ . ",
". @ @ >#,#'#)#!#~#{#]#]#^#/#(#_#:#Y@h+<#[#[#}#|#1#2#3#4#5#@ @ . ",
"~ . % @ 6#7#8#9#0#a#b#b#P@c#d#e#f#/#g#h#i#i#j#k#l#|#m#n#o#@ @ . ",
". . . @ p#q#r#s#t#u#v#v#.+w#x#y#$.z#A#B#C#C#D#E#F#z@G#H#I#@ @ . ",
". . . . @ J#K#L#M#N#O#O#P#@ @ @ @ @ Q#R#@ @ S#T#U#V#V#@ ~ @ @   ",
"~ . . . . @ @ @ @ @ @ @ @ . . ~ ~ . @ @ @ @ W#X#@ Y#Z#@ @ . . . ",
". . . . . . . ~ ~ . % % % `#% . . . . . . . @ @   @ @ . % `#`#% ",
". . ~ ~ . .     . . . . . . . . . . ~ ~ . . .     . . . . . . . ",
". . . . . . . . . . . . . . . . . . . . . . . .   . . . . . . . "};
