/* XPM */
static char * background_xpm[] = {
"32 32 15 1",
" 	c #6E5967",
".	c #C39490",
"+	c #D1B1A5",
"@	c #B77F83",
"#	c #3F3851",
"$	c #AD707B",
"%	c #91EA9C",
"&	c #48C38A",
"*	c #37AB9C",
"=	c #298A91",
"-	c #F0F7F4",
";	c #DCCABE",
">	c #B2D3CF",
",	c #8CA9B5",
"'	c #25667E",
"                                ",
"................................",
"............+..@...........+++..",
"................................",
"++.#####$.++++..++......#####+..",
"++.#####$.++++..++......#####+..",
".##%%%&&################%%%&&##.",
".#####**&&&&&%%%%%&%%&&&**#####.",
".#####**&&&&&%%%%%&%%&&&**#####.",
"$.+##*&&&&&&&&&&&&&&&&&&&&=##...",
"...##*&&&&&&&&&&&&&&&&&&&&=##...",
".####&&&&&&&&&&&&&&&&##&&&=##$  ",
"#--##***###**&####*##--#&&=##...",
"#--##***###**&####*##--#&&=##;;+",
"#----##############----#&&=##...",
"#>>--,##%%%%%&%%##,-->>#&&*####.",
"#>>--,##%%%%%&%%##,-->>#&&*####.",
"$##,,####&&&&&#####,,##&&&&&&&&#",
".##,,####&&&&&#####,,##&&&&&&&&#",
"#&&#####*&&&&&**#####**&&&&&&**#",
"#&&##'==########===**&&&&&***##.",
"#&&##'==########===**&&&&&***##.",
".####=============*%%&&&**###...",
".####=============*%%&&&**###...",
".....#&&*##############===#.....",
"$.++;#**#......$$.++;;;#''#.....",
".....#**#..............#''#.....",
".....###...$..  .......###..$$  ",
"$....###.......$$......###......",
".......$$.+++;+......... ...+;;+",
"..$$..  ..........$$...  .......",
"........................ ......."};
